<svg xmlns="http://www.w3.org/2000/svg" height="800" width="1200" viewBox="-20.82945 -22.146875 180.5219 132.88125"><path d="M71.0142 65.6012h5.4688V36.0837h-5.4688zm-6.56 0h5.4675V29.5237h-5.4675zm-6.5587 0h5.4662V36.0837h-5.4662z" fill="#d9bb6c"/><path d="M89.598 32.8l-5.4625 5.4662V19.665h5.4675m-6.5613 19.6925l-5.4675 5.47V13.0988h5.4675m-12.0275 21.89h5.47V6.555h-5.47zm-6.56-6.56h5.4663V0h-5.4663zm-6.5587 6.56h5.465V6.555h-5.465zm-1.095 9.8375l-5.4675-5.4688V13.0988h5.4675M44.7742 19.665v13.1337l5.465 5.4688V19.665M14.3517 72.3363c2.7363 0 4.9725 2.2012 4.9725 4.8912v1.05c0 2.2887-1.6187 4.2213-3.7825 4.7488l4.5013 5.5612h-6.5L9.1567 83.17H6.5005v5.4175h-6.5v-16.25c-.0712 0 7.645-.001 14.3512-.001m-7.8512 7.0412h5.5225c.82 0 1.4925-.66 1.4925-1.4674v-.3138c0-.8087-.6713-1.4675-1.4925-1.4675H6.5005m40.115 12.4575h9.2087c2.8313 0 5.1475-2.315 5.1475-5.145 0-2.8325-2.3162-5.1463-5.1475-5.1463H49.388c-.4813 0-.8763-.3937-.8763-.8737v-.42c0-.48.3938-.8725.8763-.8725h4.2075c.4812 0 .875.3925.875.8725v.2088h6.4937c-.1437-2.705-2.4-4.8738-5.14-4.8738h-9.2087c-2.8288 0-5.1463 2.315-5.1463 5.1463 0 2.83 2.3175 5.145 5.1463 5.145h6.4387c.4813 0 .8763.3937.8763.875v.4187c0 .48-.3963.875-.8763.875h-4.2087c-.4813 0-.875-.395-.875-.875v-.2087h-6.4938c.1425 2.7024 2.4 4.8737 5.1388 4.8737m29.5237 0h6.4988v-16.25h-6.4988v9.3663l-7.585-9.3663h-6.4987v16.25h6.4987v-9.365m34.0625 9.365h6.5013v-5.9588h9.74v-4.3324l-9.74-.0275v-1.5975h10.9587v-4.3338h-17.46m-82.57 8.1025c0 5.3225 3.4788 8.1475 10.35 8.1475 6.8725 0 10.3513-2.825 10.3513-8.1475 0-5.3238-3.4788-8.1025-10.3513-8.1025-6.8712 0-10.35 2.7788-10.35 8.1025m10.35-4.3113c2.1125 0 3.8388 1.4688 3.8388 3.2688v2.13c0 1.7987-1.7263 3.2712-3.8388 3.2712-2.11 0-3.8375-1.4725-3.8375-3.2712v-2.13c0-1.8 1.7275-3.2688 3.8375-3.2688m53.5075 12.4588h17.9913V84.254H90.403v-1.6262h9.7387v-4.3325l-9.7387-.0275v-1.5975h10.9587v-4.3338H83.9042m42.7575 16.25h6.5025V76.6702h5.6988v-4.3324h-18.0638v4.3324h5.8625"/></svg>