<svg xmlns="http://www.w3.org/2000/svg" viewBox="0 0 308.41 103.46"><defs><style>.a{fill:none;}.b{fill:#008c95;}</style></defs><rect class="a" width="308.41" height="103.46"/><path class="b" d="M75.62,48.56s1.18-13.38,1.3-14.69a5.68,5.68,0,0,0-5.61-5.94H37.54a5.94,5.94,0,0,0-6.33,5.43c-.15,1.57-2.95,33.92-3.12,35.78a5.69,5.69,0,0,0,5.54,6.4H67.2c4.46,0,6.19-2.36,6.57-6C74,67.36,75.1,54.19,75.1,54.19H54.8l-.87,10.18H48.79L51,39.1h5.14l-.82,9.46Z"/><path class="b" d="M106.94,32c-.72,2.08-6.63,20.57-6.63,20.57l2.63-24.66H82.65L78.4,75.54H93.69c3.84,0,5.15-2.18,5.79-3.93.77-2.08,6.4-17.64,6.4-17.64l-2.07,21.57h20.3l4.18-47.61H112.36A5.59,5.59,0,0,0,106.94,32Z"/><path class="b" d="M209.76,27.93l-1.9,21.71h-5.15l1.9-21.71H184.32s-1.95,23-2.16,25.21c-.24,2.65,1.26,6.4,5.75,6.4H207l-.42,4.83H181.18l-1,11.17h40.39c2.74,0,5.38-1.79,5.74-5.61.23-2.45,3.72-42,3.72-42Z"/><path class="b" d="M262.72,27.94H235.16L231,75.54h20.29l1.29-14.73H272.3c3.49,0,5.8-1.78,6.18-5.86.14-1.59,1.75-19.63,1.85-21.22.25-3.52-2.55-5.79-6-5.79Zm-9.27,23,1-11.81h5.09l-1,11.81Z"/><path class="b" d="M152.36,43.92l.43-4.82h25.42l1-11.17H133.46l-4.16,47.6h40.5c2.58,0,5.37-1.52,5.73-5.5.27-3,1.52-17.14,1.75-19.71.3-3.43-1.88-6.4-6.15-6.4Zm3.28,21.71h-5.18l1-11.8h5.17Z"/></svg>