<?xml version="1.0" encoding="utf-8"?>
<!-- Generator: Adobe Illustrator 26.0.3, SVG Export Plug-In . SVG Version: 6.00 Build 0)  -->
<svg version="1.0" id="Layer_1" xmlns="http://www.w3.org/2000/svg" xmlns:xlink="http://www.w3.org/1999/xlink" x="0px" y="0px"
	 viewBox="0 0 852 654.2" style="enable-background:new 0 0 852 654.2;" xml:space="preserve">
<style type="text/css">
	.st0{fill:#B18538;}
	.st1{fill-rule:evenodd;clip-rule:evenodd;fill:#006295;}
	.st2{fill-rule:evenodd;clip-rule:evenodd;fill:#B18538;}
	.st3{fill-rule:evenodd;clip-rule:evenodd;fill:#CB9B45;}
	.st4{fill-rule:evenodd;clip-rule:evenodd;fill:#0078AD;}
</style>
<path class="st0" d="M664.1,199.7c-60.8-33.3-145-53.9-238.1-53.9s-177.3,20.6-238.1,53.9c-60,32.8-97.1,77.9-97.1,127.4
	s37.1,94.6,97.1,127.4c60.8,33.3,145.1,53.9,238.1,53.9s177.3-20.6,238.1-53.9c60-32.8,97.1-77.9,97.1-127.4
	S724.2,232.6,664.1,199.7 M426,135c95,0,181.1,21.2,243.6,55.5c63.3,34.7,102.4,83,102.4,136.6S732.8,429,669.6,463.8
	C607.1,498,521,519.2,426,519.2S244.9,498,182.4,463.8C119.2,429,80,380.7,80,327.1s39.2-101.9,102.4-136.6
	C244.9,156.2,331,135,426,135z"/>
<path class="st1" d="M180.7,326.8l8.5-23.7h11L187,338.8c-1.9,5.2-4,9.2-6.2,12c-2.3,2.8-5.5,4.1-9.5,3.9c-1.6-0.1-3.2-0.4-4.7-0.9
	v-8.3c0.9,0.3,1.8,0.4,2.8,0.4c1.5,0.1,2.9-0.5,3.9-1.5c1.2-1.5,2-3.2,2.5-5l-18.3-36.3h11.7L180.7,326.8z M218.7,328.5h4.9
	c2.4,0.1,4.8-0.6,6.8-2c1.6-1.3,2.4-3.4,2.5-6.3c0.2-5.9-2.9-8.8-9.3-8.8h-4.8L218.7,328.5z M218.7,337.1v16.4h-11.1v-50.4h15.5
	c7.2,0,12.7,1.3,16.6,3.8s5.8,7.1,5.6,13.6c-0.1,11.1-7,16.6-20.6,16.6L218.7,337.1z M284.1,311.5h-19.5v42h-11v-50.4h30.5
	L284.1,311.5z M310.7,326.8l8.5-23.7h11l-13.2,35.7c-1.9,5.2-4,9.2-6.2,12c-2.3,2.8-5.4,4.1-9.5,3.9c-1.6-0.1-3.2-0.4-4.7-0.9v-8.3
	c0.9,0.3,1.8,0.4,2.8,0.4c1.5,0.1,2.9-0.5,3.9-1.5c1.2-1.5,2-3.2,2.5-5l-18.2-36.3h11.6L310.7,326.8z M357.3,311.4v42.1h-11v-42.1
	h-12.9v-8.3h36.7v8.3L357.3,311.4z M388.6,330.4v23.2h-11v-50.4h11V322h18.4v-18.9h11v50.4h-11v-23.2H388.6z M460.8,311.5h-20.1
	v11.9h16.9v8.8h-16.9v13.1h22.7v8.2h-33.8v-50.4h31.2V311.5z M501.9,313.6v24.3c4.2,0.3,7.3-0.5,9.2-2.4c1.9-1.9,2.9-5.1,2.9-9.9
	C514,317.2,510,313.2,501.9,313.6z M491.1,313.7c-7.7-0.7-11.5,3.3-11.5,12c0,4.7,0.9,8,2.7,9.9c1.8,1.9,4.7,2.6,8.8,2.4V313.7z
	 M491.1,353.5v-7.4c-0.3,0-0.5,0-0.7,0c-0.3,0-0.6,0-0.9,0c-4.3-0.1-7.5-0.5-9.5-1.3c-3.4-1.4-6.3-3.8-8.2-7
	c-2.2-3.7-3.3-7.9-3.2-12.1c0-3.1,0.6-6.2,1.7-9.1c1.3-3.3,3.7-6.1,6.7-8c3.3-2.3,8-3.3,14.1-3v-5.9h10.9v5.9c6.2-0.2,11,0.8,14.4,3
	c3.1,1.9,5.5,4.7,6.8,8c1.1,2.9,1.7,6,1.7,9.1c0.1,4.3-1,8.5-3.2,12.1c-1.9,3.2-4.9,5.7-8.4,7c-2,0.8-5.2,1.2-9.7,1.3
	c-0.3,0-0.6,0-0.9,0c-0.2,0-0.5,0-0.7,0v7.4L491.1,353.5z M553.3,311.4v42.1h-11v-42.1h-12.9v-8.3h36.7v8.3L553.3,311.4z
	 M604.8,311.5h-20.1v11.9h16.9v8.8h-16.9v13.1h22.7v8.2h-33.8v-50.4h31.2L604.8,311.5z M646.1,311.5h-19.5v42h-11v-50.4h30.5
	L646.1,311.5z M667.7,334.5h12.2l-6.3-15.9L667.7,334.5z M664.4,343.1l-3.9,10.4h-11.1l19-50.4h10.4l19.4,50.4h-11.1l-4.2-10.6
	L664.4,343.1z M708.6,314.6l-4.9-6.9c5.1-3.9,11.4-5.9,17.8-5.8c3.5-0.2,6.9,0.5,10.1,1.9c2.4,1.1,4.4,2.8,5.8,5
	c1.2,1.9,2,4,2.2,6.2c0.1,1.7,0,3.5-0.6,5.1c-0.5,1.7-1.5,3.2-2.9,4.4c-1.5,1.3-3.3,2.1-5.3,2.4v0.8c2.7,0.2,5.3,1.4,7.3,3.3
	c2,2.1,3.1,4.9,3,7.8c0,2.7-0.8,5.3-2.3,7.6c-1.7,2.5-4.1,4.6-6.9,5.9c-3.5,1.6-7.3,2.5-11.2,2.5c-6.9,0.2-13.4-2.3-19.6-7.4
	l5.3-6.8c0.2,0,0.4,0.1,0.6,0.3c0.2,0.1,0.3,0.3,0.5,0.4c0.5,0.3,1.1,0.6,1.6,1c0.6,0.4,1.4,0.9,2.2,1.3c2.9,1.5,6.2,2.2,9.5,1.8
	c2.2-0.2,4.3-1.2,5.8-2.9c1.3-1.4,2-3.3,1.9-5.3c-0.2-3.8-2.7-5.7-7.7-5.7h-4.9v-8.5h4c3.1,0,5.1-0.7,6.2-2.1c1-1.3,1.4-2.9,1.2-4.5
	c-0.2-1.7-1.2-3.1-2.5-4.1c-1.7-1.1-3.7-1.7-5.8-1.6C716.2,310.9,712.6,312.2,708.6,314.6L708.6,314.6z M152.2,309l-5.4,6.6
	c-3.9-3.4-7.8-4.9-11.7-4.4c-1.7,0.3-3.4,0.9-4.8,1.8c-2,1.3-3.6,3.1-4.6,5.3c-1.3,2.5-2,5.9-1.9,10.1c0.1,5.9,1.4,10,3.7,12.4
	c2,2.2,4.7,3.7,7.6,4.2c4.4,0.7,8.6-1.3,12.7-5.9l6.1,5.4c-5.6,6.8-12.1,10.2-19.8,10.2c-4.2,0.1-8.4-1.1-12-3.3
	c-3.6-2.3-6.5-5.6-8.3-9.4c-2.1-4.2-3.1-8.8-3-13.5c0.1-8.8,2.7-15.4,7.7-19.9c4.6-4.3,10.7-6.7,17.1-6.7c3.2,0,6.4,0.6,9.4,1.9
	C147.6,305,150.1,306.7,152.2,309z"/>
<path class="st2" d="M606.5,375.3c-46.1,68.5-173.3,102.5-257.7,114.9c-15.4-1.9-20-2.5-34.5-4.8c51.2-17,169.2-47.2,190.6-110.1
	L606.5,375.3z M483.3,202.9c41.5,11.7,92.6,31.2,122.4,76.2H483.9c-1.7-2.1-3.4-4.2-5.1-6.3l0,0l0,0v0l-1.4-1.7l0,0l-0.5-0.6l0,0
	c-1.3-1.5-2.6-3.1-4-4.6l0,0l-0.5-0.6l-1-1.1l0,0l-2-2.2l0,0l-1.5-1.6l0,0l-2.1-2.2l0,0l-0.5-0.5l0,0l-1.3-1.2l0,0l-1.6-1.6
	l-1.1-1.1l0,0l-0.5-0.5l0,0l-1.1-1l0,0l-0.5-0.5l0,0l-0.5-0.5l0,0l-1.1-1l-0.5-0.5l0,0l-0.5-0.5l-0.5-0.5l-0.5-0.4l0,0l-0.5-0.4l0,0
	l-0.5-0.4l-0.5-0.4l0,0l-0.5-0.5L453,246l0,0l-0.5-0.4l-0.5-0.4l0,0l-0.5-0.4l-1-0.9l-0.5-0.4l0,0l-0.5-0.4l-0.5-0.4l0,0l-0.5-0.4
	l-1-0.9l0,0l-0.5-0.4l-0.5-0.4l-0.5-0.4l0,0l-0.9-0.8l0,0l-0.5-0.4l0,0l-0.5-0.4l0,0l-0.9-0.8l-1.9-1.6l0,0
	c-0.9-0.8-1.9-1.6-2.8-2.3l0,0c-0.9-0.8-1.9-1.5-2.8-2.2l0,0l-0.1-0.4C447.2,222.1,469.4,209.3,483.3,202.9z"/>
<path class="st3" d="M619,375.3c-39.6,69-160.9,107.4-234,118.5c13.9,0.5,25.9,1.5,42.1,1.5c90,0,170.4-19.4,229.2-50.4
	c39.5-21.4,63.6-44.3,78.2-69.6L619,375.3z M498.1,195.8c52.7,18.8,92.4,38.3,121.1,83.3l115.1-0.3
	c-33.7-58.9-112.1-89.8-177.2-105.2C545.6,176.7,503,193.2,498.1,195.8z"/>
<path class="st1" d="M245.5,375.3c23.9,34.5,61,57.1,105.8,70.5c7.6,2.3,20.3,4.7,27.8,6.2c12.2-3,40.9-14.4,59.6-24.9l-11.5,0.5
	h-5.5l-1-0.1l0,0l-1-0.1l-1-0.1l-1-0.1l0,0l-1-0.1l0,0l-1-0.1l0,0l-1-0.1l0,0l-1-0.1l0,0c-18.7-2.5-36.2-10.3-48.7-22.8
	c-8.2-8.1-14.5-17.9-18.4-28.7L245.5,375.3z M503.5,164.3c-121,17.4-220.9,59.2-257.3,114.8h122.3l0.4-0.5l0.9-1.2l0,0l0.9-1.2l0,0
	l0.5-0.6l0,0l1.4-1.8l0,0c0.8-1,1.6-1.9,2.4-2.9l0,0l0.5-0.6l0,0c1.3-1.5,2.6-3.1,4-4.6l0,0l0.5-0.6l0,0l1-1.1l0,0l2-2.2l0,0
	l1.5-1.7l0,0l2.1-2.2l0,0l0.5-0.5l0,0l1.1-1.1l1.6-1.6l0,0l1.1-1.1l0,0l0.5-0.5l0,0l1.1-1l0,0l0.5-0.5l0,0l0.5-0.5l0,0l0.8-0.7
	c4.5-4.4,9.3-8.7,14.2-12.8l1.2-1l0.9-0.8l0,0c0.9-0.8,1.9-1.6,2.8-2.4l0,0c0.9-0.8,1.9-1.5,2.8-2.2l0,0c2.9-2.3,5.8-4.4,8.6-6.3
	c36.7-26.5,80.6-46.1,113.5-55.9l-1.3-0.4C527.8,167,513,165.5,503.5,164.3L503.5,164.3z"/>
<path class="st4" d="M232.8,279.1c42.5-72.2,167-106.8,234.5-118.4c-15.5-1.2-26.2-1.8-42.4-1.8c-90,0.1-171.3,19.4-230,50.4
	c-34.5,19.5-62,43.3-77.4,69.6L232.8,279.1z M329,449c-41-16.7-73.2-35.7-96.1-73.7H117.8c33,57.5,112,89.7,176.8,105.8
	c12.4-3.3,54.7-17.2,67.5-22.5C350.8,456.4,339.7,453.2,329,449z"/>
</svg>
