<?xml version="1.0" encoding="utf-8"?>
<!-- Generator: Adobe Illustrator 26.0.2, SVG Export Plug-In . SVG Version: 6.00 Build 0)  -->
<svg version="1.1" id="Layer_1" xmlns="http://www.w3.org/2000/svg" xmlns:xlink="http://www.w3.org/1999/xlink" x="0px" y="0px"
	 viewBox="0 0 476.4 89.2" style="enable-background:new 0 0 476.4 89.2;" xml:space="preserve">
<style type="text/css">
	.st0{fill-rule:evenodd;clip-rule:evenodd;fill:#A5282D;}
	.st1{font-family:'Arial-Black';}
	.st2{font-size:35.2394px;}
</style>
<path class="st0" d="M75.2,53l1.9-6.8l4.2-0.3l4.5-1.4v-3l0,0C85.8,18.6,66.5,0,42.9,0S0,18.5,0,41.4l0,0v0.1l0,0v3.1l4.5,1.4
	l4.3,0.4l1.9,6.8l-3.5,2.3l-3.2,3.3l3.7,6.1l4.6-1l3.9-1.8l5.1,5l-1.8,3.7l-1,4.4l6.3,3.6l3.5-3l2.5-3.4l7,1.8l0.3,4.1l1.4,4.3h7.3
	l1.4-4.3l0.4-4.1l7-1.8l2.4,3.4l3.4,3.1l6.3-3.6l-1-4.4L64.8,67l5.1-4.9l3.8,1.8l4.6,1l3.6-6.1l-3.1-3.4L75.2,53L75.2,53z
	 M42.9,67.5c-15.1,0-27.3-11.8-27.3-26.4s12.2-26.6,27.3-26.6s27.3,12,27.3,26.5S58,67.5,42.9,67.5z M71.8,41.5c0-0.1,0-0.2,0-0.3
	l0,0v-0.1c0-15.5-13-28-28.9-28S14,25.7,14,41.1v0.1l0,0c0,0.1,0,0.2,0,0.2H4C4,20.6,21.4,3.7,42.9,3.7s38.9,17,38.9,37.8H71.8
	L71.8,41.5z M63.1,30.4c-2.7-4.5-7.6-7.2-12.8-7.2c-2.5,0-5,0.6-7.2,1.8c-4.5-2.3-9.9-2.2-14.4,0.2c-3.4,1.9-5.8,5-6.9,8.7
	c-1,3.7-0.5,7.6,1.5,10.9c1.2,2.1,2.9,3.8,5,5c0.1,2.4,0.8,4.7,2,6.7c2.7,4.5,7.6,7.2,12.8,7.2c2.6,0,5.1-0.7,7.4-1.9
	c4.4-2.4,7.2-7,7.4-12c3.3-1.9,5.7-5,6.7-8.6C65.6,37.5,65.1,33.6,63.1,30.4L63.1,30.4z M49.5,38c-0.1,4.3-2.5,8.3-6.2,10.6
	c-1.9-1.1-3.4-2.7-4.6-4.6c-1.1-1.9-1.7-4-1.8-6.2C40.9,35.9,45.6,36,49.5,38z M24.5,44.1c-1.8-3-2.3-6.5-1.3-9.8
	c0.9-3.4,3.2-6.2,6.3-7.9c3.8-2.1,8.4-2.3,12.3-0.5c-3.7,2.6-6,6.7-6.2,11.2l0,0c-4.1,2.3-6.7,6.5-7.2,11.2
	C26.8,47.2,25.5,45.8,24.5,44.1L24.5,44.1z M49.8,60.6c-2,1.1-4.3,1.7-6.7,1.7c-4.7,0-9.1-2.4-11.6-6.5c-1-1.6-1.6-3.4-1.7-5.3
	c2,0.9,4.2,1.4,6.3,1.4l0,0c2.5,0,5-0.6,7.2-1.8l0,0c4.1,2.1,8.9,2.3,13.1,0.4C56,54.8,53.5,58.6,49.8,60.6L49.8,60.6z M63.2,40.9
	c-0.8,3-2.8,5.7-5.4,7.4c-0.2-2.1-0.8-4.2-1.9-6c-1.2-2.1-2.9-3.8-5-5l0,0c-0.1-2.4-0.8-4.7-2-6.7c-1.1-1.9-2.6-3.4-4.4-4.6
	c6.3-3,13.8-0.8,17.4,5.2C63.7,34,64.2,37.6,63.2,40.9z"/>
<text transform="matrix(1 0 0 1 111.3305 54.7549)" class="st1 st2">СПЕЦВАНГОСНАБ</text>
</svg>
