<svg id="Layer_1" data-name="Layer 1" xmlns="http://www.w3.org/2000/svg" viewBox="0 0 476.41 89.2"><defs><style>.cls-1,.cls-2{fill:#6b7280;}.cls-1{fill-rule:evenodd;}.cls-2{font-size:34px;font-family:Arial-Black, Arial Black;font-weight:800;}</style></defs><path class="cls-1" d="M98.79,69.45l1.87-6.75,4.22-.32L109.36,61V58h0c0-22.89-19.26-41.52-42.87-41.52S23.64,35,23.59,57.84h0v.08h0V61l4.46,1.38,4.27.36,1.86,6.76-3.49,2.32-3.18,3.35,3.66,6.14,4.58-1,3.88-1.76,5.09,5-1.82,3.7-1,4.44,6.34,3.55,3.46-3,2.46-3.41,7,1.82.33,4.09,1.4,4.34h7.31l1.43-4.32.37-4.14,7-1.8,2.4,3.38,3.45,3.08,6.33-3.55-1-4.43-1.81-3.77,5.1-4.94,3.82,1.77,4.58,1,3.65-6.15-3.14-3.36-3.51-2.38ZM66.47,84C51.41,84,39.19,72.21,39.15,57.61S51.4,31.05,66.47,31.05,93.78,43,93.8,57.58,81.55,84,66.47,84ZM95.37,58c0-.11,0-.22,0-.33h0v-.1c0-15.48-13-28-28.91-28s-28.92,12.56-28.92,28v.08h0c0,.08,0,.16,0,.24l-10,0C27.62,37.06,45,20.21,66.47,20.21s38.89,17,38.94,37.79l-10,0ZM86.69,46.87A14.88,14.88,0,0,0,73.9,39.71a15.15,15.15,0,0,0-7.2,1.82,15.42,15.42,0,0,0-14.39.21,14.34,14.34,0,0,0-6.88,8.69,13.85,13.85,0,0,0,1.48,10.86,14.53,14.53,0,0,0,5,5,14,14,0,0,0,2,6.73A14.93,14.93,0,0,0,66.7,80.2a15.17,15.17,0,0,0,7.37-1.92,14.31,14.31,0,0,0,7.37-12,14.3,14.3,0,0,0,6.73-8.6,13.85,13.85,0,0,0-1.48-10.86ZM73.07,54.48a12.93,12.93,0,0,1-6.18,10.59,13.13,13.13,0,0,1-4.57-4.56,12.71,12.71,0,0,1-1.79-6.15,13.92,13.92,0,0,1,12.54.12Zm-25,6.14a12.54,12.54,0,0,1-1.34-9.84A13,13,0,0,1,53,42.9a13.68,13.68,0,0,1,12.34-.53,14.29,14.29,0,0,0-6.18,11.2h0A14.33,14.33,0,0,0,52,64.74a13.13,13.13,0,0,1-3.87-4.12Zm25.28,16.5a13.67,13.67,0,0,1-6.68,1.74,13.49,13.49,0,0,1-11.6-6.49,12.53,12.53,0,0,1-1.74-5.31,15.19,15.19,0,0,0,6.35,1.39h0a15,15,0,0,0,7.19-1.83h0A15.36,15.36,0,0,0,80,67.05a13,13,0,0,1-6.64,10.07ZM86.84,57.38a12.93,12.93,0,0,1-5.43,7.4,14,14,0,0,0-1.94-6.05,14.53,14.53,0,0,0-5-5h0a14,14,0,0,0-2-6.72,14.52,14.52,0,0,0-4.4-4.63A13.62,13.62,0,0,1,85.5,47.53a12.57,12.57,0,0,1,1.34,9.85Z" transform="translate(-23.59 -16.48)"/><text class="cls-2" transform="translate(103.7 47.66)">СПЕЦВАНГОСНАБ</text></svg>